<?xml version="1.0" encoding="utf-8"?>
<!-- Generator: Adobe Illustrator 16.0.0, SVG Export Plug-In . SVG Version: 6.00 Build 0)  -->
<!DOCTYPE svg PUBLIC "-//W3C//DTD SVG 1.1//EN" "http://www.w3.org/Graphics/SVG/1.1/DTD/svg11.dtd">
<svg version="1.1" id="Grant_Engine_Logo" xmlns="http://www.w3.org/2000/svg" xmlns:xlink="http://www.w3.org/1999/xlink" x="0px"
	 y="0px" width="1200px" height="1200.024px" viewBox="0 0 1200 1200.024" enable-background="new 0 0 1200 1200.024"
	 xml:space="preserve">
<rect id="white" x="-0.012" display="none" fill-rule="evenodd" clip-rule="evenodd" fill="#FFFFFF" width="1200.023" height="1200.024"/>
<path id="Logo" fill-rule="evenodd" clip-rule="evenodd" fill="#191949" d="M248.702,487.3l-2.266,1.309l-89.828,51.861
	l0.007,158.396c86.521,50.062,147.353,86.276,252.221,90.918c41.282,1.838,82.695-3.017,121.852-15.757
	c-30.911-17.645-61.915-35.132-92.461-53.409c-85.424-51.094-146.775-144.897-174.177-242.176L248.702,487.3L248.702,487.3z
	 M785.315,269.839l-11.726-31.772l-25.081-67.941l-74.682-13.959l-66.064,8.885c-58.466,62.689-134.788,207.538-139.037,299.491
	c23.446-68.189,104.376-176.794,171.933-190.007c40.436-6.408,66.535-6.464,148.92,6.867L785.315,269.839L785.315,269.839z
	 M492.491,223.675c-74.352,121.548-109.507,272.453-60.17,412.898c-30.37-27.431-55.091-60.689-74.028-97.131
	c-47.26-90.925-47.387-165.958-47.353-263.688L424.75,209.71L492.491,223.675L492.491,223.675z M966.381,745.205l-15.005,8.667
	l-14.761,8.514c-27.443-97.364-88.603-190.674-174.239-241.902c-30.299-18.121-61.042-35.478-91.722-52.967
	c38.877-12.527,79.944-17.284,120.874-15.467c104.729,4.649,165.502,40.788,251.863,90.757v157.953L966.381,745.205L966.381,745.205
	z M660.589,990.801h0.006l14.928,8.624l76.969,44.433l136.182-78.621c0.091-99.48,0.956-170.063-47.268-262.874
	c-18.649-35.884-42.919-68.674-72.692-95.842c0.2,34.843,0.522,69.693-0.013,104.539c-1.534,99.36-51.783,199.221-122.049,271.701
	L660.589,990.801L660.589,990.801z M309.139,858.32l0.007-17.313c97.933,24.832,209.773,18.559,296.696-29.851
	c30.947-17.234,61.443-35.243,92.023-53.127c-8.567,40.078-25.015,78.152-47.133,112.812
	c-56.413,88.422-118.136,122.991-204.644,172.834l-136.956-79.059l0.006-92.783l0.007-13.507L309.139,858.32z"/>
</svg>
